REM DIRINDEX 1\6,1\2\7,1\2\8,1\2\9,1\3\10,1\3\11,1\4\12,1\4\13,1\4\14,1\5\15,1\5\16,1\5\17
REM DIRNAME folder01,folder02,folder03,folder04,folder05,folder06,folder07,folder08,folder09,folder10,folder11,folder12,folder13,folder14,folder15,folder16,folder17
TITLE ""
FILE "P2Q_t2_0358-0373.mp3" MP3
  TRACK 01 AUDIO
    TITLE "7:cjc040_4902"
    INDEX 01 00:00:00
  TRACK 02 AUDIO
    TITLE "0:"
    INDEX 01 00:01:28
  TRACK 03 AUDIO
    TITLE "8:cjc040_4903"
    INDEX 01 00:02:06
  TRACK 04 AUDIO
    TITLE "0:"
    INDEX 01 00:03:21
  TRACK 05 AUDIO
    TITLE "9:cjc040_4904"
    INDEX 01 00:03:68
  TRACK 06 AUDIO
    TITLE "0:"
    INDEX 01 00:05:34
  TRACK 07 AUDIO
    TITLE "7:cjc040_4905"
    INDEX 01 00:07:13
  TRACK 08 AUDIO
    TITLE "0:"
    INDEX 01 00:08:13
  TRACK 09 AUDIO
    TITLE "8:cjc040_4906"
    INDEX 01 00:08:70
  TRACK 10 AUDIO
    TITLE "0:"
    INDEX 01 00:12:14
  TRACK 11 AUDIO
    TITLE "9:cjc040_4907"
    INDEX 01 00:12:67
  TRACK 12 AUDIO
    TITLE "0:"
    INDEX 01 00:13:65
  TRACK 13 AUDIO
    TITLE "7:cjc040_4908"
    INDEX 01 00:15:52
  TRACK 14 AUDIO
    TITLE "0:"
    INDEX 01 00:17:14
  TRACK 15 AUDIO
    TITLE "8:cjc040_4909"
    INDEX 01 00:17:70
  TRACK 16 AUDIO
    TITLE "0:"
    INDEX 01 00:20:61
  TRACK 17 AUDIO
    TITLE "9:cjc040_4910"
    INDEX 01 00:21:41
  TRACK 18 AUDIO
    TITLE "0:"
    INDEX 01 00:22:74
  TRACK 19 AUDIO
    TITLE "7:cjc040_4911"
    INDEX 01 00:24:59
  TRACK 20 AUDIO
    TITLE "0:"
    INDEX 01 00:25:66
  TRACK 21 AUDIO
    TITLE "8:cjc040_4912"
    INDEX 01 00:26:42
  TRACK 22 AUDIO
    TITLE "0:"
    INDEX 01 00:28:35
  TRACK 23 AUDIO
    TITLE "9:cjc040_4913"
    INDEX 01 00:29:11
  TRACK 24 AUDIO
    TITLE "0:"
    INDEX 01 00:30:24
  TRACK 25 AUDIO
    TITLE "7:cjc040_4914"
    INDEX 01 00:32:03
  TRACK 26 AUDIO
    TITLE "0:"
    INDEX 01 00:33:09
  TRACK 27 AUDIO
    TITLE "8:cjc040_4915"
    INDEX 01 00:33:68
  TRACK 28 AUDIO
    TITLE "0:"
    INDEX 01 00:36:31
  TRACK 29 AUDIO
    TITLE "9:cjc040_4916"
    INDEX 01 00:37:08
  TRACK 30 AUDIO
    TITLE "0:"
    INDEX 01 00:38:16
  TRACK 31 AUDIO
    TITLE "7:cjc040_4917"
    INDEX 01 00:40:03
  TRACK 32 AUDIO
    TITLE "0:"
    INDEX 01 00:41:38
  TRACK 33 AUDIO
    TITLE "8:cjc040_4918"
    INDEX 01 00:42:14
  TRACK 34 AUDIO
    TITLE "0:"
    INDEX 01 00:43:33
  TRACK 35 AUDIO
    TITLE "9:cjc040_4919"
    INDEX 01 00:44:11
  TRACK 36 AUDIO
    TITLE "0:"
    INDEX 01 00:45:51
  TRACK 37 AUDIO
    TITLE "7:cjc040_4920"
    INDEX 01 00:47:32
  TRACK 38 AUDIO
    TITLE "0:"
    INDEX 01 00:48:65
  TRACK 39 AUDIO
    TITLE "8:cjc040_4921"
    INDEX 01 00:49:43
  TRACK 40 AUDIO
    TITLE "0:"
    INDEX 01 00:50:54
  TRACK 41 AUDIO
    TITLE "9:cjc040_4922"
    INDEX 01 00:51:32
  TRACK 42 AUDIO
    TITLE "0:"
    INDEX 01 00:52:63
  TRACK 43 AUDIO
    TITLE "7:cjc040_4923"
    INDEX 01 00:54:48
  TRACK 44 AUDIO
    TITLE "0:"
    INDEX 01 00:55:59
  TRACK 45 AUDIO
    TITLE "8:cjc040_4924"
    INDEX 01 00:56:37
  TRACK 46 AUDIO
    TITLE "0:"
    INDEX 01 01:00:29
  TRACK 47 AUDIO
    TITLE "9:cjc040_4925"
    INDEX 01 01:01:09
  TRACK 48 AUDIO
    TITLE "0:"
    INDEX 01 01:02:20
  TRACK 49 AUDIO
    TITLE "7:cjc040_4926"
    INDEX 01 01:04:07
  TRACK 50 AUDIO
    TITLE "0:"
    INDEX 01 01:05:24
  TRACK 51 AUDIO
    TITLE "8:cjc040_4927"
    INDEX 01 01:06:06
  TRACK 52 AUDIO
    TITLE "0:"
    INDEX 01 01:07:59
  TRACK 53 AUDIO
    TITLE "9:cjc040_4928"
    INDEX 01 01:08:40
  TRACK 54 AUDIO
    TITLE "0:"
    INDEX 01 01:09:63
  TRACK 55 AUDIO
    TITLE "7:cjc040_4929"
    INDEX 01 01:11:51
  TRACK 56 AUDIO
    TITLE "0:"
    INDEX 01 01:12:60
  TRACK 57 AUDIO
    TITLE "8:cjc040_4930"
    INDEX 01 01:13:44
  TRACK 58 AUDIO
    TITLE "0:"
    INDEX 01 01:19:05
  TRACK 59 AUDIO
    TITLE "9:cjc040_4931"
    INDEX 01 01:19:62
  TRACK 60 AUDIO
    TITLE "0:"
    INDEX 01 01:21:00
  TRACK 61 AUDIO
    TITLE "7:cjc040_4932"
    INDEX 01 01:22:54
  TRACK 62 AUDIO
    TITLE "0:"
    INDEX 01 01:23:71
  TRACK 63 AUDIO
    TITLE "8:cjc040_4933"
    INDEX 01 01:24:55
  TRACK 64 AUDIO
    TITLE "0:"
    INDEX 01 01:29:17
  TRACK 65 AUDIO
    TITLE "9:cjc040_4934"
    INDEX 01 01:29:72
  TRACK 66 AUDIO
    TITLE "0:"
    INDEX 01 01:31:12
  TRACK 67 AUDIO
    TITLE "7:cjc040_4935"
    INDEX 01 01:32:70
  TRACK 68 AUDIO
    TITLE "0:"
    INDEX 01 01:34:08
  TRACK 69 AUDIO
    TITLE "8:cjc040_4936"
    INDEX 01 01:34:69
  TRACK 70 AUDIO
    TITLE "0:"
    INDEX 01 01:36:52
  TRACK 71 AUDIO
    TITLE "9:cjc040_4937"
    INDEX 01 01:37:28
  TRACK 72 AUDIO
    TITLE "0:"
    INDEX 01 01:38:47
  TRACK 73 AUDIO
    TITLE "7:cjc040_4938"
    INDEX 01 01:40:27
  TRACK 74 AUDIO
    TITLE "0:"
    INDEX 01 01:41:56
  TRACK 75 AUDIO
    TITLE "8:cjc040_4939"
    INDEX 01 01:42:39
  TRACK 76 AUDIO
    TITLE "0:"
    INDEX 01 01:44:26
  TRACK 77 AUDIO
    TITLE "9:cjc040_4940"
    INDEX 01 01:45:10
  TRACK 78 AUDIO
    TITLE "0:"
    INDEX 01 01:46:45
  TRACK 79 AUDIO
    TITLE "7:cjc040_4941"
    INDEX 01 01:48:26
  TRACK 80 AUDIO
    TITLE "0:"
    INDEX 01 01:49:47
  TRACK 81 AUDIO
    TITLE "8:cjc040_4942"
    INDEX 01 01:50:27
  TRACK 82 AUDIO
    TITLE "0:"
    INDEX 01 01:54:50
  TRACK 83 AUDIO
    TITLE "9:cjc040_4943"
    INDEX 01 01:55:20
  TRACK 84 AUDIO
    TITLE "0:"
    INDEX 01 01:56:45
  TRACK 85 AUDIO
    TITLE "7:cjc040_4944"
    INDEX 01 01:58:30
  TRACK 86 AUDIO
    TITLE "0:"
    INDEX 01 01:59:42
  TRACK 87 AUDIO
    TITLE "8:cjc040_4945"
    INDEX 01 02:00:29
  TRACK 88 AUDIO
    TITLE "0:"
    INDEX 01 02:04:17
  TRACK 89 AUDIO
    TITLE "9:cjc040_4946"
    INDEX 01 02:04:68
  TRACK 90 AUDIO
    TITLE "0:"
    INDEX 01 02:06:08
  TRACK 91 AUDIO
    TITLE "7:cjc040_4947"
    INDEX 01 02:07:63
  TRACK 92 AUDIO
    TITLE "0:"
    INDEX 01 02:09:01
  TRACK 93 AUDIO
    TITLE "8:cjc040_4948"
    INDEX 01 02:09:60
  TRACK 94 AUDIO
    TITLE "0:"
    INDEX 01 02:11:33
  TRACK 95 AUDIO
    TITLE "9:cjc040_4949"
    INDEX 01 02:12:17
  TRACK 96 AUDIO
    TITLE "0:"
    INDEX 01 02:13:32
